<svg width="116" height="116" viewBox="0 0 116 116" fill="none" xmlns="http://www.w3.org/2000/svg">
<path d="M0.0693359 57.883C0.0693359 73.2346 6.16771 87.9574 17.0229 98.8125C27.8781 109.668 42.6008 115.766 57.9524 115.766C73.3039 115.766 88.0267 109.668 98.8819 98.8125C109.737 87.9574 115.835 73.2346 115.835 57.883C115.835 42.5315 109.737 27.8087 98.8819 16.9536C88.0267 6.09837 73.3039 0 57.9524 0C42.6008 0 27.8781 6.09837 17.0229 16.9536C6.16771 27.8087 0.0693359 42.5315 0.0693359 57.883V57.883Z" fill="#F1F2F6"/>
<path d="M8.29346 20.9216L67.7097 3.47504L90.4666 80.9759L31.0503 98.4225L8.29346 20.9216Z" fill="white" stroke="#1D1E2C" stroke-width="1.79437" stroke-linecap="round" stroke-linejoin="round"/>
<path d="M20.0393 8.62842H81.9655V89.3999H20.0393V8.62842Z" fill="white" stroke="#1D1E2C" stroke-width="1.79437" stroke-linecap="round" stroke-linejoin="round"/>
<path d="M28.1179 16.707H73.8889V24.7846H28.1179V16.707Z" fill="#E5E9F2" stroke="#1D1E2C" stroke-width="1.79437" stroke-linecap="round" stroke-linejoin="round"/>
<path d="M44.271 38.2444H55.0416" stroke="#1D1E2C" stroke-width="1.79437" stroke-linecap="round" stroke-linejoin="round"/>
<path d="M44.271 43.6306H68.5037" stroke="#1D1E2C" stroke-width="1.79437" stroke-linecap="round" stroke-linejoin="round"/>
<path d="M44.271 49.0151H61.7922" stroke="#1D1E2C" stroke-width="1.79437" stroke-linecap="round" stroke-linejoin="round"/>
<path d="M44.271 65.1692H57.7331" stroke="#1D1E2C" stroke-width="1.79437" stroke-linecap="round" stroke-linejoin="round"/>
<path d="M44.271 70.5537H71.1953" stroke="#1D1E2C" stroke-width="1.79437" stroke-linecap="round" stroke-linejoin="round"/>
<path d="M44.271 75.9399H65.8107" stroke="#1D1E2C" stroke-width="1.79437" stroke-linecap="round" stroke-linejoin="round"/>
<path d="M30.6732 48.122V44.5517H29.5896V43.6627H30.6732V42.5235H29.5896V41.6344H30.6732V38.2031H32.1179L33.4377 41.6344H35.0769V38.2031H36.1744V41.6344H37.2579V42.5235H36.1744V43.6627H37.2579V44.5517H36.1744V48.122H34.7157L33.396 44.5517H31.7567V48.122H30.6732ZM31.729 41.6344H32.3124L31.729 39.9118H31.6734L31.729 41.6344ZM31.7567 43.6627H33.0626L32.6458 42.5235H31.729L31.7567 43.6627ZM34.1739 43.6627H35.1047L35.0769 42.5235H33.7572L34.1739 43.6627ZM35.0769 46.1632H35.1325L35.0908 44.5517H34.5073L35.0769 46.1632Z" fill="#1D1E2C"/>
<path d="M30.6732 75.9054V72.3352H29.5896V71.4461H30.6732V70.307H29.5896V69.4179H30.6732V65.9866H32.1179L33.4377 69.4179H35.0769V65.9866H36.1744V69.4179H37.2579V70.307H36.1744V71.4461H37.2579V72.3352H36.1744V75.9054H34.7157L33.396 72.3352H31.7567V75.9054H30.6732ZM31.729 69.4179H32.3124L31.729 67.6953H31.6734L31.729 69.4179ZM31.7567 71.4461H33.0626L32.6458 70.307H31.729L31.7567 71.4461ZM34.1739 71.4461H35.1047L35.0769 70.307H33.7572L34.1739 71.4461ZM35.0769 73.9466H35.1325L35.0908 72.3352H34.5073L35.0769 73.9466Z" fill="#1D1E2C"/>
<path d="M110.003 101.615C110.479 102.079 110.858 102.633 111.118 103.244C111.379 103.856 111.515 104.513 111.519 105.178C111.524 105.842 111.396 106.501 111.144 107.116C110.891 107.731 110.519 108.29 110.05 108.76C109.58 109.23 109.021 109.602 108.406 109.854C107.791 110.107 107.132 110.234 106.468 110.23C105.803 110.226 105.146 110.09 104.534 109.83C103.923 109.569 103.369 109.19 102.905 108.714L89.5918 95.4014L96.6912 88.302L110.003 101.615Z" fill="#E5E9F2"/>
<path d="M110.003 101.615C110.479 102.079 110.858 102.633 111.118 103.244C111.379 103.856 111.515 104.513 111.519 105.178C111.524 105.842 111.396 106.501 111.144 107.116C110.891 107.731 110.519 108.29 110.05 108.76C109.58 109.23 109.021 109.602 108.406 109.854C107.791 110.107 107.132 110.234 106.468 110.23C105.803 110.226 105.146 110.09 104.534 109.83C103.923 109.569 103.369 109.19 102.905 108.714L89.5918 95.4014L96.6912 88.302L110.003 101.615Z" stroke="#1D1E2C" stroke-width="1.79437" stroke-linecap="round" stroke-linejoin="round"/>
<path d="M82.4905 84.7551L86.0396 81.205L94.9154 90.0783L91.3663 93.6284L82.4905 84.7551Z" fill="white" stroke="#1D1E2C" stroke-width="1.79437" stroke-linecap="round" stroke-linejoin="round"/>
<path d="M86.9316 53.695C90.0909 56.8543 92.2425 60.8795 93.1142 65.2616C93.9859 69.6437 93.5386 74.1859 91.8288 78.3138C90.119 82.4416 87.2235 85.9698 83.5086 88.4521C79.7936 90.9344 75.426 92.2593 70.958 92.2593C66.49 92.2593 62.1224 90.9344 58.4074 88.4521C54.6925 85.9698 51.797 82.4416 50.0872 78.3138C48.3774 74.1859 47.9301 69.6437 48.8018 65.2616C49.6735 60.8795 51.8251 56.8543 54.9844 53.695C59.2213 49.4593 64.967 47.0798 70.958 47.0798C76.949 47.0798 82.6947 49.4593 86.9316 53.695Z" fill="white" stroke="#1D1E2C" stroke-width="1.79437" stroke-linecap="round" stroke-linejoin="round"/>
<path d="M82.4918 58.1333C84.7734 60.4149 86.3271 63.3219 86.9566 66.4865C87.5861 69.6512 87.263 72.9314 86.0282 75.9125C84.7934 78.8935 82.7023 81.4414 80.0194 83.2341C77.3366 85.0267 74.1824 85.9835 70.9557 85.9835C67.729 85.9835 64.5748 85.0267 61.892 83.2341C59.2091 81.4414 57.1181 78.8935 55.8832 75.9125C54.6484 72.9314 54.3254 69.6512 54.9548 66.4865C55.5843 63.3219 57.138 60.4149 59.4196 58.1333C60.9344 56.6182 62.7329 55.4163 64.7123 54.5963C66.6917 53.7763 68.8132 53.3542 70.9557 53.3542C73.0982 53.3542 75.2197 53.7763 77.1991 54.5963C79.1785 55.4163 80.977 56.6182 82.4918 58.1333Z" fill="#E5E9F2"/>
<path d="M82.4918 58.1333C84.7734 60.4149 86.3271 63.3219 86.9566 66.4865C87.5861 69.6512 87.263 72.9314 86.0282 75.9125C84.7934 78.8935 82.7023 81.4414 80.0194 83.2341C77.3366 85.0267 74.1824 85.9835 70.9557 85.9835C67.729 85.9835 64.5748 85.0267 61.892 83.2341C59.2091 81.4414 57.1181 78.8935 55.8832 75.9125C54.6484 72.9314 54.3254 69.6512 54.9548 66.4865C55.5843 63.3219 57.138 60.4149 59.4196 58.1333C60.9344 56.6182 62.7329 55.4163 64.7123 54.5963C66.6917 53.7763 68.8132 53.3542 70.9557 53.3542C73.0982 53.3542 75.2197 53.7763 77.1991 54.5963C79.1785 55.4163 80.977 56.6182 82.4918 58.1333Z" stroke="#1D1E2C" stroke-width="1.79437" stroke-linecap="round" stroke-linejoin="round"/>
<path d="M37.3652 108.503C37.3652 109.308 39.7095 110.08 43.8822 110.649C48.0549 111.218 53.7143 111.538 59.6155 111.538C65.5166 111.538 71.176 111.218 75.3488 110.649C79.5215 110.08 81.8657 109.308 81.8657 108.503C81.8657 107.698 79.5215 106.927 75.3488 106.358C71.176 105.788 65.5166 105.469 59.6155 105.469C53.7143 105.469 48.0549 105.788 43.8822 106.358C39.7095 106.927 37.3652 107.698 37.3652 108.503Z" fill="#E5E9F2"/>
</svg>
