<svg width="2" height="2" viewBox="0 0 20 22" fill="none" xmlns="http://www.w3.org/2000/svg">
<g filter="url(#filter0_d_466_180)">
<path d="M9.66667 11H10.3333V7.33333H9.66667V11ZM10 6.38467C10.1164 6.38467 10.2138 6.34533 10.292 6.26667C10.3707 6.188 10.41 6.09067 10.41 5.97467C10.41 5.85822 10.3707 5.76067 10.292 5.682C10.2138 5.60333 10.1164 5.564 10 5.564C9.88356 5.564 9.78622 5.60333 9.708 5.682C9.62933 5.76067 9.59 5.85822 9.59 5.97467C9.59 6.09067 9.62933 6.188 9.708 6.26667C9.78622 6.34533 9.88356 6.38467 10 6.38467ZM10.002 14C9.17267 14 8.39267 13.8427 7.662 13.528C6.93178 13.2129 6.29644 12.7853 5.756 12.2453C5.21556 11.7058 4.78778 11.0711 4.47267 10.3413C4.15756 9.61156 4 8.83178 4 8.002C4 7.17267 4.15733 6.39267 4.472 5.662C4.78711 4.93178 5.21467 4.29644 5.75467 3.756C6.29422 3.21556 6.92889 2.78778 7.65867 2.47267C8.38844 2.15756 9.16822 2 9.998 2C10.8273 2 11.6073 2.15733 12.338 2.472C13.0682 2.78711 13.7036 3.21467 14.244 3.75467C14.7844 4.29422 15.2122 4.92889 15.5273 5.65867C15.8424 6.38844 16 7.16822 16 7.998C16 8.82733 15.8427 9.60733 15.528 10.338C15.2129 11.0682 14.7853 11.7036 14.2453 12.244C13.7058 12.7844 13.0711 13.2122 12.3413 13.5273C11.6116 13.8424 10.8318 14 10.002 14ZM10 13.3333C11.4889 13.3333 12.75 12.8167 13.7833 11.7833C14.8167 10.75 15.3333 9.48889 15.3333 8C15.3333 6.51111 14.8167 5.25 13.7833 4.21667C12.75 3.18333 11.4889 2.66667 10 2.66667C8.51111 2.66667 7.25 3.18333 6.21667 4.21667C5.18333 5.25 4.66667 6.51111 4.66667 8C4.66667 9.48889 5.18333 10.75 6.21667 11.7833C7.25 12.8167 8.51111 13.3333 10 13.3333Z" fill="#0084FE"/>
</g>
<defs>
<filter id="filter0_d_466_180" x="-2" y="0" width="24" height="24" filterUnits="userSpaceOnUse" color-interpolation-filters="sRGB">
<feFlood flood-opacity="0" result="BackgroundImageFix"/>
<feColorMatrix in="SourceAlpha" type="matrix" values="0 0 0 0 0 0 0 0 0 0 0 0 0 0 0 0 0 0 127 0" result="hardAlpha"/>
<feOffset dy="4"/>
<feGaussianBlur stdDeviation="2"/>
<feComposite in2="hardAlpha" operator="out"/>
<feColorMatrix type="matrix" values="0 0 0 0 0 0 0 0 0 0 0 0 0 0 0 0 0 0 0.25 0"/>
<feBlend mode="normal" in2="BackgroundImageFix" result="effect1_dropShadow_466_180"/>
<feBlend mode="normal" in="SourceGraphic" in2="effect1_dropShadow_466_180" result="shape"/>
</filter>
</defs>
</svg>
